<svg width="512" height="512" viewBox="0 0 512 512" fill="none" xmlns="http://www.w3.org/2000/svg">
  <!-- GTE Logo - Orange G icon with analytics chart element -->
  <rect width="512" height="512" rx="128" fill="#0A0A0A"/>
  
  <!-- Main G letter -->
  <path d="M256 128C181.6 128 128 181.6 128 256C128 330.4 181.6 384 256 384C298.4 384 336 366.4 360 339.2V288H256V224H416V256C416 330.4 362.4 384 288 384C213.6 384 160 330.4 160 256C160 181.6 213.6 128 288 128C324.8 128 357.6 142.4 381.6 166.4L428.8 119.2C391.2 81.6 341.6 64 288 64C177.6 64 96 145.6 96 256C96 366.4 177.6 448 288 448C398.4 448 480 366.4 480 256V192H352V320H416V339.2C391.2 366.4 353.6 384 311.2 384C236.8 384 176 323.2 176 248.8C176 174.4 236.8 113.6 311.2 113.6C348 113.6 380.8 128 404.8 152L428.8 128C401.6 100.8 363.2 86.4 320 86.4C223.2 86.4 144 165.6 144 262.4C144 359.2 223.2 438.4 320 438.4C416.8 438.4 496 359.2 496 262.4V176H336V336H432V308.8C456 286.4 472 252.8 472 214.4C472 134.4 408 70.4 328 70.4C248 70.4 184 134.4 184 214.4C184 294.4 248 358.4 328 358.4C368 358.4 403.2 342.4 428.8 316.8L452.8 340.8C420.8 372.8 376 390.4 328 390.4C230.4 390.4 152 312 152 214.4C152 116.8 230.4 38.4 328 38.4C425.6 38.4 504 116.8 504 214.4C504 260.8 486.4 302.4 456 332.8V368H320V208H448V214.4C448 275.2 398.4 324.8 337.6 324.8C276.8 324.8 227.2 275.2 227.2 214.4C227.2 153.6 276.8 104 337.6 104C369.6 104 398.4 116.8 419.2 137.6L395.2 161.6C379.2 145.6 357.6 136 333.6 136C293.6 136 261.6 168 261.6 208C261.6 248 293.6 280 333.6 280C358.4 280 380 268.8 395.2 252.8V256H368V352H416V244.8C416 199.2 379.2 162.4 333.6 162.4C288 162.4 251.2 199.2 251.2 244.8C251.2 290.4 288 327.2 333.6 327.2C379.2 327.2 416 290.4 416 244.8V224H288" fill="#FF7817" stroke="#FF7817" stroke-width="4"/>
  
  <!-- Chart bars element (analytics indicator) -->
  <rect x="320" y="340" width="24" height="48" rx="4" fill="#00FF88" opacity="0.8"/>
  <rect x="352" y="320" width="24" height="68" rx="4" fill="#00D4FF" opacity="0.8"/>
  <rect x="384" y="300" width="24" height="88" rx="4" fill="#FF7817" opacity="0.8"/>
</svg>


